# xmcd
#
# Track frame offsets:
#	182
#	19692
#	37025
#	52855
#	75882
#	97232
#	113790
#	132635
#	147162
#	163107
#
# Disc length: 2507 seconds
#
# Revision: 2
# Processed by: cddbd v1.5.1PL0 Copyright (c) Steve Scherf et al.
# Submitted via: MusicWizard 7.0.2
#
DISCID=8009c90a
DTITLE=Guy Clark - Dublin Blues
DYEAR=1995
DGENRE=Country
TTITLE0=Dublin Blues
TTITLE1=Black Diamond Strings
TTITLE2=Shut Up And Talk To Me
TTITLE3=Stuff That Works
TTITLE4=Hank Williams Said It Best
TTITLE5=The Cape
TTITLE6=Baby Took A Limo To Memphis
TTITLE7=Tryin' To Try
TTITLE8=Hangin' Your Life On The Wall
TTITLE9=The Randall Knife
EXTD=(c)1995 Elektra Entertainment/Warner Bros\nupc 075596172523\nProduced by Miles Wilkinson and 
EXTD=Guy Clark\n
EXTT0=
EXTT1=
EXTT2=
EXTT3=
EXTT4=
EXTT5=
EXTT6=
EXTT7=
EXTT8=
EXTT9=
PLAYORDER=
